<mxfile host="app.diagrams.net" modified="2023-08-27T12:52:49.699Z" agent="Mozilla/5.0 (Windows NT 10.0; Win64; x64) AppleWebKit/537.36 (KHTML, like Gecko) Chrome/116.0.0.0 Safari/537.36" etag="IeF7pVtUNjX2_VT5NtBt" version="21.6.9" type="device">
  <diagram name="Page-1" id="c7558073-3199-34d8-9f00-42111426c3f3">
    <mxGraphModel dx="1823" dy="2660" grid="1" gridSize="10" guides="1" tooltips="1" connect="1" arrows="1" fold="1" page="1" pageScale="1" pageWidth="1600" pageHeight="900" background="none" math="0" shadow="0">
      <root>
        <mxCell id="0" />
        <mxCell id="1" parent="0" />
        <mxCell id="Bg_iQe6vDmfT6p6T9dPz-100" value="&lt;b&gt;Rendering Engine&lt;/b&gt;" style="text;html=1;align=center;verticalAlign=middle;whiteSpace=wrap;rounded=0;" parent="1" vertex="1">
          <mxGeometry x="430" y="-1650" width="120" height="20" as="geometry" />
        </mxCell>
        <mxCell id="Bg_iQe6vDmfT6p6T9dPz-104" value="" style="edgeStyle=none;orthogonalLoop=1;jettySize=auto;html=1;rounded=0;entryX=0;entryY=0.042;entryDx=0;entryDy=0;entryPerimeter=0;" parent="1" edge="1">
          <mxGeometry width="80" relative="1" as="geometry">
            <mxPoint x="250" y="-1570" as="sourcePoint" />
            <mxPoint x="430" y="-1568.26" as="targetPoint" />
            <Array as="points" />
          </mxGeometry>
        </mxCell>
        <mxCell id="Bg_iQe6vDmfT6p6T9dPz-105" value="commit message for a navigation" style="text;html=1;align=center;verticalAlign=middle;resizable=0;points=[];autosize=1;strokeColor=none;fillColor=none;" parent="1" vertex="1">
          <mxGeometry x="210" y="-1610" width="200" height="30" as="geometry" />
        </mxCell>
        <mxCell id="Bg_iQe6vDmfT6p6T9dPz-106" value="Html string&amp;nbsp;" style="rounded=0;whiteSpace=wrap;html=1;backgroundOutline=1;" parent="1" vertex="1">
          <mxGeometry x="450" y="-1590" width="120" height="60" as="geometry" />
        </mxCell>
        <mxCell id="Bg_iQe6vDmfT6p6T9dPz-108" value="" style="endArrow=classic;html=1;rounded=0;exitX=1;exitY=0.5;exitDx=0;exitDy=0;entryX=0.306;entryY=0.048;entryDx=0;entryDy=0;entryPerimeter=0;backgroundOutline=1;" parent="1" source="Bg_iQe6vDmfT6p6T9dPz-106" edge="1">
          <mxGeometry width="50" height="50" relative="1" as="geometry">
            <mxPoint x="570" y="-1520" as="sourcePoint" />
            <mxPoint x="619.7199999999998" y="-1559.44" as="targetPoint" />
          </mxGeometry>
        </mxCell>
        <mxCell id="Bg_iQe6vDmfT6p6T9dPz-109" value="Sub Resource Loading (Link and imgages)" style="rounded=0;whiteSpace=wrap;html=1;backgroundOutline=1;" parent="1" vertex="1">
          <mxGeometry x="620" y="-1590" width="120" height="60" as="geometry" />
        </mxCell>
        <mxCell id="Bg_iQe6vDmfT6p6T9dPz-110" value="" style="endArrow=classic;html=1;rounded=0;exitX=1;exitY=0.5;exitDx=0;exitDy=0;entryX=0.306;entryY=0.048;entryDx=0;entryDy=0;entryPerimeter=0;backgroundOutline=1;" parent="1" source="Bg_iQe6vDmfT6p6T9dPz-109" edge="1">
          <mxGeometry width="50" height="50" relative="1" as="geometry">
            <mxPoint x="740" y="-1520" as="sourcePoint" />
            <mxPoint x="789.7199999999998" y="-1559.44" as="targetPoint" />
          </mxGeometry>
        </mxCell>
        <mxCell id="Bg_iQe6vDmfT6p6T9dPz-117" value="If found JS&lt;br style=&quot;border-color: var(--border-color);&quot;&gt;It is loaded first and other processes are stopped" style="rounded=0;whiteSpace=wrap;html=1;backgroundOutline=1;" parent="1" vertex="1">
          <mxGeometry x="790" y="-1590" width="150" height="60" as="geometry" />
        </mxCell>
        <mxCell id="Bg_iQe6vDmfT6p6T9dPz-118" value="" style="endArrow=classic;html=1;rounded=0;exitX=1;exitY=0.5;exitDx=0;exitDy=0;backgroundOutline=1;" parent="1" source="Bg_iQe6vDmfT6p6T9dPz-117" edge="1">
          <mxGeometry width="50" height="50" relative="1" as="geometry">
            <mxPoint x="910" y="-1520" as="sourcePoint" />
            <mxPoint x="980" y="-1560" as="targetPoint" />
          </mxGeometry>
        </mxCell>
        <mxCell id="Bg_iQe6vDmfT6p6T9dPz-119" value="DOM is created" style="rounded=0;whiteSpace=wrap;html=1;backgroundOutline=1;" parent="1" vertex="1">
          <mxGeometry x="980" y="-1590" width="120" height="60" as="geometry" />
        </mxCell>
        <mxCell id="Bg_iQe6vDmfT6p6T9dPz-127" value="Rendering Engine" style="shape=umlFrame;whiteSpace=wrap;html=1;pointerEvents=0;width=120;height=50;" parent="1" vertex="1">
          <mxGeometry x="430" y="-1670" width="1070" height="530" as="geometry" />
        </mxCell>
        <mxCell id="Bg_iQe6vDmfT6p6T9dPz-143" style="edgeStyle=orthogonalEdgeStyle;rounded=0;orthogonalLoop=1;jettySize=auto;html=1;exitX=0.5;exitY=1;exitDx=0;exitDy=0;exitPerimeter=0;" parent="1" source="Bg_iQe6vDmfT6p6T9dPz-131" target="Bg_iQe6vDmfT6p6T9dPz-142" edge="1">
          <mxGeometry relative="1" as="geometry" />
        </mxCell>
        <mxCell id="Bg_iQe6vDmfT6p6T9dPz-131" value="" style="verticalLabelPosition=bottom;verticalAlign=top;html=1;shape=mxgraph.basic.frame;dx=0;whiteSpace=wrap;" parent="1" vertex="1">
          <mxGeometry x="440" y="-1600" width="680" height="90" as="geometry" />
        </mxCell>
        <mxCell id="Bg_iQe6vDmfT6p6T9dPz-135" value="Loaded CSS" style="rounded=0;whiteSpace=wrap;html=1;backgroundOutline=1;" parent="1" vertex="1">
          <mxGeometry x="635" y="-1460" width="120" height="60" as="geometry" />
        </mxCell>
        <mxCell id="Bg_iQe6vDmfT6p6T9dPz-136" value="" style="endArrow=classic;html=1;rounded=0;exitX=1;exitY=0.5;exitDx=0;exitDy=0;entryX=0.306;entryY=0.048;entryDx=0;entryDy=0;entryPerimeter=0;backgroundOutline=1;" parent="1" source="Bg_iQe6vDmfT6p6T9dPz-135" edge="1">
          <mxGeometry width="50" height="50" relative="1" as="geometry">
            <mxPoint x="755" y="-1390" as="sourcePoint" />
            <mxPoint x="804.7199999999998" y="-1429.44" as="targetPoint" />
          </mxGeometry>
        </mxCell>
        <mxCell id="Bg_iQe6vDmfT6p6T9dPz-137" value="Style Calculation for each DOM node" style="rounded=0;whiteSpace=wrap;html=1;backgroundOutline=1;" parent="1" vertex="1">
          <mxGeometry x="805" y="-1460" width="120" height="60" as="geometry" />
        </mxCell>
        <mxCell id="Bg_iQe6vDmfT6p6T9dPz-142" value="" style="verticalLabelPosition=bottom;verticalAlign=top;html=1;shape=mxgraph.basic.frame;dx=0;whiteSpace=wrap;" parent="1" vertex="1">
          <mxGeometry x="440" y="-1470" width="680" height="90" as="geometry" />
        </mxCell>
        <mxCell id="Bg_iQe6vDmfT6p6T9dPz-146" value="Layout Tree" style="rounded=0;whiteSpace=wrap;html=1;backgroundOutline=1;" parent="1" vertex="1">
          <mxGeometry x="1170" y="-1530" width="120" height="60" as="geometry" />
        </mxCell>
        <mxCell id="Bg_iQe6vDmfT6p6T9dPz-154" value="" style="edgeStyle=none;orthogonalLoop=1;jettySize=auto;html=1;rounded=0;exitX=1;exitY=0.5;exitDx=0;exitDy=0;exitPerimeter=0;entryX=-0.01;entryY=0.098;entryDx=0;entryDy=0;entryPerimeter=0;" parent="1" source="Bg_iQe6vDmfT6p6T9dPz-131" target="Bg_iQe6vDmfT6p6T9dPz-146" edge="1">
          <mxGeometry width="100" relative="1" as="geometry">
            <mxPoint x="1120" y="-1610" as="sourcePoint" />
            <mxPoint x="1160" y="-1495" as="targetPoint" />
            <Array as="points" />
          </mxGeometry>
        </mxCell>
        <mxCell id="Bg_iQe6vDmfT6p6T9dPz-155" value="" style="edgeStyle=none;orthogonalLoop=1;jettySize=auto;html=1;rounded=0;exitX=1;exitY=0.5;exitDx=0;exitDy=0;exitPerimeter=0;entryX=0;entryY=1;entryDx=0;entryDy=0;" parent="1" source="Bg_iQe6vDmfT6p6T9dPz-142" target="Bg_iQe6vDmfT6p6T9dPz-146" edge="1">
          <mxGeometry width="100" relative="1" as="geometry">
            <mxPoint x="1120" y="-1430" as="sourcePoint" />
            <mxPoint x="1160" y="-1495" as="targetPoint" />
            <Array as="points" />
          </mxGeometry>
        </mxCell>
        <mxCell id="Bg_iQe6vDmfT6p6T9dPz-158" value="" style="endArrow=classic;html=1;rounded=0;exitX=1;exitY=0.5;exitDx=0;exitDy=0;backgroundOutline=1;entryX=0;entryY=0.5;entryDx=0;entryDy=0;" parent="1" source="Bg_iQe6vDmfT6p6T9dPz-146" target="Bg_iQe6vDmfT6p6T9dPz-159" edge="1">
          <mxGeometry width="50" height="50" relative="1" as="geometry">
            <mxPoint x="1290" y="-1500" as="sourcePoint" />
            <mxPoint x="1330" y="-1500" as="targetPoint" />
          </mxGeometry>
        </mxCell>
        <mxCell id="-uxD2DVyO911mGzpC9JX-2" value="" style="edgeStyle=none;curved=1;rounded=0;orthogonalLoop=1;jettySize=auto;html=1;fontSize=12;startSize=8;endSize=8;" edge="1" parent="1" source="Bg_iQe6vDmfT6p6T9dPz-159" target="-uxD2DVyO911mGzpC9JX-1">
          <mxGeometry relative="1" as="geometry" />
        </mxCell>
        <mxCell id="Bg_iQe6vDmfT6p6T9dPz-159" value="Paint records" style="rounded=0;whiteSpace=wrap;html=1;backgroundOutline=1;" parent="1" vertex="1">
          <mxGeometry x="1330" y="-1530" width="120" height="60" as="geometry" />
        </mxCell>
        <mxCell id="-uxD2DVyO911mGzpC9JX-4" value="" style="edgeStyle=none;curved=1;rounded=0;orthogonalLoop=1;jettySize=auto;html=1;fontSize=12;startSize=8;endSize=8;" edge="1" parent="1" source="-uxD2DVyO911mGzpC9JX-1" target="-uxD2DVyO911mGzpC9JX-3">
          <mxGeometry relative="1" as="geometry" />
        </mxCell>
        <mxCell id="-uxD2DVyO911mGzpC9JX-1" value="Layer Tree" style="rounded=0;whiteSpace=wrap;html=1;backgroundOutline=1;fontSize=16;" vertex="1" parent="1">
          <mxGeometry x="1315" y="-1310" width="150" height="60" as="geometry" />
        </mxCell>
        <mxCell id="-uxD2DVyO911mGzpC9JX-10" value="" style="edgeStyle=none;curved=1;rounded=0;orthogonalLoop=1;jettySize=auto;html=1;fontSize=12;startSize=8;endSize=8;" edge="1" parent="1" source="-uxD2DVyO911mGzpC9JX-3" target="-uxD2DVyO911mGzpC9JX-9">
          <mxGeometry relative="1" as="geometry" />
        </mxCell>
        <mxCell id="-uxD2DVyO911mGzpC9JX-3" value="Main thread commit this to compositer thread" style="rounded=0;whiteSpace=wrap;html=1;backgroundOutline=1;fontSize=16;" vertex="1" parent="1">
          <mxGeometry x="1010" y="-1325" width="150" height="90" as="geometry" />
        </mxCell>
        <mxCell id="-uxD2DVyO911mGzpC9JX-7" style="edgeStyle=none;curved=1;rounded=0;orthogonalLoop=1;jettySize=auto;html=1;exitX=0.5;exitY=0;exitDx=0;exitDy=0;fontSize=12;startSize=8;endSize=8;" edge="1" parent="1" source="-uxD2DVyO911mGzpC9JX-3" target="-uxD2DVyO911mGzpC9JX-3">
          <mxGeometry relative="1" as="geometry" />
        </mxCell>
        <mxCell id="-uxD2DVyO911mGzpC9JX-12" value="" style="edgeStyle=none;curved=1;rounded=0;orthogonalLoop=1;jettySize=auto;html=1;fontSize=12;startSize=8;endSize=8;" edge="1" parent="1" source="-uxD2DVyO911mGzpC9JX-9" target="-uxD2DVyO911mGzpC9JX-11">
          <mxGeometry relative="1" as="geometry" />
        </mxCell>
        <mxCell id="-uxD2DVyO911mGzpC9JX-9" value="Rasterization of layer in to small tiles&lt;br&gt;(draw quads)" style="rounded=0;whiteSpace=wrap;html=1;backgroundOutline=1;fontSize=16;" vertex="1" parent="1">
          <mxGeometry x="750" y="-1325" width="150" height="90" as="geometry" />
        </mxCell>
        <mxCell id="-uxD2DVyO911mGzpC9JX-15" value="" style="edgeStyle=none;curved=1;rounded=0;orthogonalLoop=1;jettySize=auto;html=1;fontSize=12;startSize=8;endSize=8;" edge="1" parent="1" source="-uxD2DVyO911mGzpC9JX-11" target="-uxD2DVyO911mGzpC9JX-14">
          <mxGeometry relative="1" as="geometry" />
        </mxCell>
        <mxCell id="-uxD2DVyO911mGzpC9JX-11" value="Compositor Frame" style="rounded=0;whiteSpace=wrap;html=1;backgroundOutline=1;fontSize=16;" vertex="1" parent="1">
          <mxGeometry x="460" y="-1325" width="150" height="90" as="geometry" />
        </mxCell>
        <mxCell id="-uxD2DVyO911mGzpC9JX-14" value="" style="shape=singleArrow;whiteSpace=wrap;html=1;arrowWidth=0.4;arrowSize=0.4;fontSize=16;rounded=0;rotation=-180;" vertex="1" parent="1">
          <mxGeometry x="360" y="-1310" width="80" height="60" as="geometry" />
        </mxCell>
        <mxCell id="-uxD2DVyO911mGzpC9JX-16" value="Browser&#39;s work to handle gpu tasks to show frame" style="rounded=0;whiteSpace=wrap;html=1;fontSize=16;" vertex="1" parent="1">
          <mxGeometry x="170" y="-1325" width="160" height="90" as="geometry" />
        </mxCell>
      </root>
    </mxGraphModel>
  </diagram>
</mxfile>
